<svg id="グループ_1226" data-name="グループ 1226" xmlns="http://www.w3.org/2000/svg" width="132.243" height="28" viewBox="0 0 132.243 28">
  <path id="パス_667" data-name="パス 667" d="M379.722,460.877h-5.938a1.28,1.28,0,0,0-1.2.674,7,7,0,1,1,0-8.348,1.281,1.281,0,0,0,1.2.674h5.938c.481,0,.707-.283.611-.674a14,14,0,1,0,0,8.348h0C380.429,461.159,380.2,460.877,379.722,460.877Z" transform="translate(-323.218 -443.377)" fill="#ef6c00"/>
  <path id="パス_668" data-name="パス 668" d="M261.371,443.377h-5.25a.878.878,0,0,0-.875.875v2.2a14,14,0,1,0,0,21.851v2.2a.878.878,0,0,0,.875.875h5.25a.878.878,0,0,0,.875-.875v-26.25A.878.878,0,0,0,261.371,443.377Zm-14.875,21a7,7,0,1,1,7-7A7,7,0,0,1,246.5,464.376Z" transform="translate(-232.496 -443.377)"/>
  <rect id="長方形_1200" data-name="長方形 1200" width="1.05" height="10.5" rx="0.525" transform="translate(104.943 12.978)" fill="#ef6c00"/>
  <path id="パス_669" data-name="パス 669" d="M622.872,498.032a3.663,3.663,0,0,0-2.625,1.1v-3.019a.186.186,0,0,0-.186-.185h-.679a.186.186,0,0,0-.185.185v10.052a.263.263,0,0,0,.262.262h.526a.263.263,0,0,0,.263-.262v-4.463h0a2.625,2.625,0,0,1,5.25,0h0v4.463a.263.263,0,0,0,.263.262h.525a.263.263,0,0,0,.262-.262v-4.463A3.675,3.675,0,0,0,622.872,498.032Z" transform="translate(-523.703 -482.954)" fill="#ef6c00"/>
  <path id="パス_670" data-name="パス 670" d="M550.8,504.436h-.525a.263.263,0,0,0-.263.262v1.161a4.2,4.2,0,1,0,0,5.553v1.161a.263.263,0,0,0,.263.263h.525a.263.263,0,0,0,.262-.263V504.7A.263.263,0,0,0,550.8,504.436Zm-3.938,7.35a3.15,3.15,0,1,1,3.15-3.15A3.15,3.15,0,0,1,546.861,511.786Z" transform="translate(-466.068 -489.358)" fill="#ef6c00"/>
  <g id="グループ_1133" data-name="グループ 1133" transform="translate(67.143 15.078)">
    <path id="パス_671" data-name="パス 671" d="M511.456,509.948a3.15,3.15,0,1,1,0-2.625h1.126a4.2,4.2,0,1,0,0,2.625Z" transform="translate(-504.393 -504.436)" fill="#ef6c00"/>
    <path id="パス_672" data-name="パス 672" d="M533,516.128c.066.167.165.263.309.263h.611c.145,0,.252-.064.206-.263" transform="translate(-525.933 -513.241)" fill="#ef6c00"/>
    <path id="パス_673" data-name="パス 673" d="M533,525.958c.066-.167.165-.262.309-.262h.611c.145,0,.252.064.206.262" transform="translate(-525.933 -520.446)" fill="#ef6c00"/>
  </g>
  <g id="グループ_1134" data-name="グループ 1134" transform="translate(67.143 2.478)">
    <path id="パス_674" data-name="パス 674" d="M513.055,453.412H511.48a.263.263,0,0,0-.262.263v.662a4.2,4.2,0,1,0,0,6.551v.662a.263.263,0,0,0,.262.263h1.575a.263.263,0,0,0,.263-.263v-7.875A.263.263,0,0,0,513.055,453.412Zm-4.462,6.3a2.1,2.1,0,1,1,2.1-2.1A2.1,2.1,0,0,1,508.593,459.712Z" transform="translate(-504.393 -453.412)"/>
    <path id="パス_675" data-name="パス 675" d="M583.211,453.412h-1.575a.263.263,0,0,0-.262.263v.662a4.2,4.2,0,1,0,0,6.551v.662a.263.263,0,0,0,.262.263h1.575a.263.263,0,0,0,.262-.263v-7.875A.263.263,0,0,0,583.211,453.412Zm-4.462,6.3a2.1,2.1,0,1,1,2.1-2.1A2.1,2.1,0,0,1,578.748,459.712Z" transform="translate(-557.224 -453.412)"/>
    <path id="パス_676" data-name="パス 676" d="M653.368,453.412h-1.575a.263.263,0,0,0-.263.263v.662a4.2,4.2,0,1,0,0,6.551v.662a.263.263,0,0,0,.263.263h1.575a.263.263,0,0,0,.263-.263v-7.875A.263.263,0,0,0,653.368,453.412Zm-4.462,6.3a2.1,2.1,0,1,1,2.1-2.1A2.1,2.1,0,0,1,648.906,459.712Z" transform="translate(-610.057 -453.412)"/>
    <path id="パス_677" data-name="パス 677" d="M555.364,453.412a4.175,4.175,0,0,0-2.1.566v-.3a.263.263,0,0,0-.263-.263h-1.575a.263.263,0,0,0-.263.263v7.875a.263.263,0,0,0,.263.263H553a.263.263,0,0,0,.263-.263v-3.937a2.1,2.1,0,0,1,2.1-2.1.263.263,0,0,0,.263-.262v-1.628C555.626,453.478,555.508,453.412,555.364,453.412Z" transform="translate(-539.613 -453.412)"/>
    <path id="パス_678" data-name="パス 678" d="M625.519,453.412a4.176,4.176,0,0,0-2.1.566v-.3a.263.263,0,0,0-.263-.263h-1.575a.263.263,0,0,0-.263.263v7.875a.263.263,0,0,0,.263.263h1.575a.263.263,0,0,0,.263-.263v-3.937a2.1,2.1,0,0,1,2.1-2.1.263.263,0,0,0,.263-.262v-1.628C625.782,453.478,625.663,453.412,625.519,453.412Z" transform="translate(-592.445 -453.412)"/>
  </g>
  <path id="パス_679" data-name="パス 679" d="M672.294,504.436a4.2,4.2,0,1,0,3.776,6.037h0c.044-.138.014-.262-.167-.262h-.717c-.144,0-.221.071-.338.262a3.142,3.142,0,0,1-5.619-1.139c-.006-.178.15-.173.276-.173h6.719a.263.263,0,0,0,.262-.262v-.007c.005-.085.008-.17.008-.256A4.2,4.2,0,0,0,672.294,504.436Zm2.786,3.675h-5.568c-.144,0-.327.006-.262-.263a3.145,3.145,0,0,1,6.093,0C675.407,508.117,675.224,508.111,675.08,508.111Z" transform="translate(-560.526 -489.358)" fill="#ef6c00"/>
  <path id="パス_680" data-name="パス 680" d="M588.043,508.111h-2.625a1.312,1.312,0,1,1,0-2.625h2.625a.263.263,0,0,0,.263-.262V504.7a.263.263,0,0,0-.263-.262h-2.625a2.362,2.362,0,1,0,0,4.725h2.625a1.313,1.313,0,0,1,0,2.625h-3.675a.263.263,0,0,0-.263.263v.525a.263.263,0,0,0,.263.263h3.675a2.363,2.363,0,0,0,0-4.725Z" transform="translate(-496.487 -489.358)" fill="#ef6c00"/>
  <path id="パス_681" data-name="パス 681" d="M711.349,508.111h-2.625a1.312,1.312,0,1,1,0-2.625h2.625a.263.263,0,0,0,.263-.262V504.7a.263.263,0,0,0-.263-.262h-2.625a2.362,2.362,0,1,0,0,4.725h2.625a1.313,1.313,0,1,1,0,2.625h-3.675a.263.263,0,0,0-.263.263v.525a.263.263,0,0,0,.263.263h3.675a2.363,2.363,0,1,0,0-4.725Z" transform="translate(-589.344 -489.358)" fill="#ef6c00"/>
  <path id="パス_682" data-name="パス 682" d="M743.239,508.111h-2.625a1.312,1.312,0,1,1,0-2.625h2.625a.263.263,0,0,0,.263-.262V504.7a.263.263,0,0,0-.263-.262h-2.625a2.362,2.362,0,1,0,0,4.725h2.625a1.313,1.313,0,0,1,0,2.625h-3.675a.263.263,0,0,0-.263.263v.525a.263.263,0,0,0,.263.263h3.675a2.363,2.363,0,1,0,0-4.725Z" transform="translate(-613.359 -489.358)" fill="#ef6c00"/>
</svg>
